#Comment line ignore any data following # character 
#Hierarchical Translation and Rotation (.htr) file 
[Header]	
#Header keywords are followed by a single value 
FileType HTR		#Single word string
DataType HTRS		#Translation followed by rotation and scale data
FileVersion 1		#integer
NumSegments 84		#integer
NumFrames 2		#integer
DataFrameRate 30		#integer, data frame rate in this file
EulerRotationOrder ZYX
CalibrationUnits mm
RotationUnits Degrees
GlobalAxisofGravity Y
BoneLengthAxis Y
ScaleFactor 1.00
[SegmentNames&Hierarchy]
#CHILD	PARENT
MASTER GLOBAL
root MASTER
chest root
L_mid_tent01 root
R_mid_tent01 root
spine01 root
Bip01_Neck chest
L_humerus chest
R_humerus chest
weapon_bone chest
Bip01_Head Bip01_Neck
eye_left_bone Bip01_Head
eye_right_bone Bip01_Head
L_forearm L_humerus
L_front_hand L_forearm
L_weapon_bone L_forearm
L_front_hand01_01 L_front_hand
L_front_hand02_01 L_front_hand
L_front_hand03_01 L_front_hand
L_front_hand01_02 L_front_hand01_01
L_front_hand02_02 L_front_hand02_01
L_front_hand03_02 L_front_hand03_01
R_forearm R_humerus
R_front_hand R_forearm
R_weapon_bone R_forearm
R_front_hand01_01 R_front_hand
R_front_hand02_01 R_front_hand
R_front_hand03_01 R_front_hand
R_front_hand01_02 R_front_hand01_01
R_front_hand02_02 R_front_hand02_01
R_front_hand03_02 R_front_hand03_01
null_rope01_connect L_mid_tent01
Rope1_Seg01 null_rope01_connect
Rope1_Seg02 Rope1_Seg01
Rope1_Seg03 Rope1_Seg02
Rope1_Seg04 Rope1_Seg03
Rope1_Seg05 Rope1_Seg04
Rope1_Seg06 Rope1_Seg05
Rope1_Seg07 Rope1_Seg06
Rope1_Seg09 Rope1_Seg07
L_mid_hand01 Rope1_Seg09
L_mid_hand02 Rope1_Seg09
L_mid_hand03 Rope1_Seg09
null_rope02_connect R_mid_tent01
Rope2_Seg01 null_rope02_connect
Rope2_Seg02 Rope2_Seg01
Rope2_Seg03 Rope2_Seg02
Rope2_Seg04 Rope2_Seg03
Rope2_Seg05 Rope2_Seg04
Rope2_Seg06 Rope2_Seg05
Rope2_Seg07 Rope2_Seg06
Rope2_Seg09 Rope2_Seg07
R_mid_hand01 Rope2_Seg09
R_mid_hand02 Rope2_Seg09
R_mid_hand03 Rope2_Seg09
spine02 spine01
spine03 spine02
pelvis spine03
null_rope03_connect pelvis
null_rope04_connect pelvis
Rope3_Seg01 null_rope03_connect
Rope3_Seg02 Rope3_Seg01
Rope3_Seg03 Rope3_Seg02
Rope3_Seg04 Rope3_Seg03
Rope3_Seg05 Rope3_Seg04
Rope3_Seg06 Rope3_Seg05
Rope3_Seg07 Rope3_Seg06
Rope3_Seg08 Rope3_Seg07
Rope3_Seg09 Rope3_Seg08
R_rear_hand01 Rope3_Seg09
R_rear_hand02 Rope3_Seg09
R_rear_hand03 Rope3_Seg09
Rope4_Seg01 null_rope04_connect
Rope4_Seg02 Rope4_Seg01
Rope4_Seg03 Rope4_Seg02
Rope4_Seg04 Rope4_Seg03
Rope4_Seg05 Rope4_Seg04
Rope4_Seg06 Rope4_Seg05
Rope4_Seg07 Rope4_Seg06
Rope4_Seg08 Rope4_Seg07
Rope4_Seg09 Rope4_Seg08
L_rear_hand01 Rope4_Seg09
L_rear_hand02 Rope4_Seg09
L_rear_hand03 Rope4_Seg09
[BasePosition]
#SegmentName Tx, Ty, Tz, Rx, Ry, Rz, BoneLength
MASTER 0.000000 0.000000 0.000000 -90.000000 0.000000 0.000000 10.000000 
root 0.000000 0.000000 0.000000 0.000000 0.000000 0.000000 10.000000 
chest 0.000000 0.000000 0.000000 0.000000 0.000000 0.000000 10.000000 
L_mid_tent01 0.000000 0.000000 0.000000 0.000000 0.000000 0.000000 10.000000 
R_mid_tent01 0.000000 0.000000 0.000000 0.000000 0.000000 0.000000 10.000000 
spine01 0.000000 0.000000 0.000000 0.000000 0.000000 0.000000 10.000000 
Bip01_Neck 0.000000 0.000000 0.000000 0.000000 0.000000 0.000000 10.000000 
L_humerus 0.000000 0.000000 0.000000 0.000000 0.000000 0.000000 10.000000 
R_humerus 0.000000 0.000000 0.000000 0.000000 0.000000 0.000000 10.000000 
weapon_bone 0.000000 0.000000 0.000000 0.000000 0.000000 0.000000 10.000000 
Bip01_Head 0.000000 0.000000 0.000000 0.000000 0.000000 0.000000 10.000000 
eye_left_bone 0.000000 0.000000 0.000000 0.000000 0.000000 0.000000 10.000000 
eye_right_bone 0.000000 0.000000 0.000000 0.000000 0.000000 0.000000 10.000000 
L_forearm 0.000000 0.000000 0.000000 0.000000 0.000000 0.000000 10.000000 
L_front_hand 0.000000 0.000000 0.000000 0.000000 0.000000 0.000000 10.000000 
L_weapon_bone 0.000000 0.000000 0.000000 0.000000 0.000000 0.000000 10.000000 
L_front_hand01_01 0.000000 0.000000 0.000000 0.000000 0.000000 0.000000 10.000000 
L_front_hand02_01 0.000000 0.000000 0.000000 0.000000 0.000000 0.000000 10.000000 
L_front_hand03_01 0.000000 0.000000 0.000000 0.000000 0.000000 0.000000 10.000000 
L_front_hand01_02 0.000000 0.000000 0.000000 0.000000 0.000000 0.000000 10.000000 
L_front_hand02_02 0.000000 0.000000 0.000000 0.000000 0.000000 0.000000 10.000000 
L_front_hand03_02 0.000000 0.000000 0.000000 0.000000 0.000000 0.000000 10.000000 
R_forearm 0.000000 0.000000 0.000000 0.000000 0.000000 0.000000 10.000000 
R_front_hand 0.000000 0.000000 0.000000 0.000000 0.000000 0.000000 10.000000 
R_weapon_bone 0.000000 0.000000 0.000000 0.000000 0.000000 0.000000 10.000000 
R_front_hand01_01 0.000000 0.000000 0.000000 0.000000 0.000000 0.000000 10.000000 
R_front_hand02_01 0.000000 0.000000 0.000000 0.000000 0.000000 0.000000 10.000000 
R_front_hand03_01 0.000000 0.000000 0.000000 0.000000 0.000000 0.000000 10.000000 
R_front_hand01_02 0.000000 0.000000 0.000000 0.000000 0.000000 0.000000 10.000000 
R_front_hand02_02 0.000000 0.000000 0.000000 0.000000 0.000000 0.000000 10.000000 
R_front_hand03_02 0.000000 0.000000 0.000000 0.000000 0.000000 0.000000 10.000000 
null_rope01_connect 0.000000 0.000000 0.000000 0.000000 0.000000 0.000000 10.000000 
Rope1_Seg01 0.000000 0.000000 0.000000 0.000000 0.000000 0.000000 10.000000 
Rope1_Seg02 0.000000 0.000000 0.000000 0.000000 0.000000 0.000000 10.000000 
Rope1_Seg03 0.000000 0.000000 0.000000 0.000000 0.000000 0.000000 10.000000 
Rope1_Seg04 0.000000 0.000000 0.000000 0.000000 0.000000 0.000000 10.000000 
Rope1_Seg05 0.000000 0.000000 0.000000 0.000000 0.000000 0.000000 10.000000 
Rope1_Seg06 0.000000 0.000000 0.000000 0.000000 0.000000 0.000000 10.000000 
Rope1_Seg07 0.000000 0.000000 0.000000 0.000000 0.000000 0.000000 10.000000 
Rope1_Seg09 0.000000 0.000000 0.000000 0.000000 0.000000 0.000000 10.000000 
L_mid_hand01 0.000000 0.000000 0.000000 0.000000 0.000000 0.000000 10.000000 
L_mid_hand02 0.000000 0.000000 0.000000 0.000000 0.000000 0.000000 10.000000 
L_mid_hand03 0.000000 0.000000 0.000000 0.000000 0.000000 0.000000 10.000000 
null_rope02_connect 0.000000 0.000000 0.000000 0.000000 0.000000 0.000000 10.000000 
Rope2_Seg01 0.000000 0.000000 0.000000 0.000000 0.000000 0.000000 10.000000 
Rope2_Seg02 0.000000 0.000000 0.000000 0.000000 0.000000 0.000000 10.000000 
Rope2_Seg03 0.000000 0.000000 0.000000 0.000000 0.000000 0.000000 10.000000 
Rope2_Seg04 0.000000 0.000000 0.000000 0.000000 0.000000 0.000000 10.000000 
Rope2_Seg05 0.000000 0.000000 0.000000 0.000000 0.000000 0.000000 10.000000 
Rope2_Seg06 0.000000 0.000000 0.000000 0.000000 0.000000 0.000000 10.000000 
Rope2_Seg07 0.000000 0.000000 0.000000 0.000000 0.000000 0.000000 10.000000 
Rope2_Seg09 0.000000 0.000000 0.000000 0.000000 0.000000 0.000000 10.000000 
R_mid_hand01 0.000000 0.000000 0.000000 0.000000 0.000000 0.000000 10.000000 
R_mid_hand02 0.000000 0.000000 0.000000 0.000000 0.000000 0.000000 10.000000 
R_mid_hand03 0.000000 0.000000 0.000000 0.000000 0.000000 0.000000 10.000000 
spine02 0.000000 0.000000 0.000000 0.000000 0.000000 0.000000 10.000000 
spine03 0.000000 0.000000 0.000000 0.000000 0.000000 0.000000 10.000000 
pelvis 0.000000 0.000000 0.000000 0.000000 0.000000 0.000000 10.000000 
null_rope03_connect 0.000000 0.000000 0.000000 0.000000 0.000000 0.000000 10.000000 
null_rope04_connect 0.000000 0.000000 0.000000 0.000000 0.000000 0.000000 10.000000 
Rope3_Seg01 0.000000 0.000000 0.000000 0.000000 0.000000 0.000000 10.000000 
Rope3_Seg02 0.000000 0.000000 0.000000 0.000000 0.000000 0.000000 10.000000 
Rope3_Seg03 0.000000 0.000000 0.000000 0.000000 0.000000 0.000000 10.000000 
Rope3_Seg04 0.000000 0.000000 0.000000 0.000000 0.000000 0.000000 10.000000 
Rope3_Seg05 0.000000 0.000000 0.000000 0.000000 0.000000 0.000000 10.000000 
Rope3_Seg06 0.000000 0.000000 0.000000 0.000000 0.000000 0.000000 10.000000 
Rope3_Seg07 0.000000 0.000000 0.000000 0.000000 0.000000 0.000000 10.000000 
Rope3_Seg08 0.000000 0.000000 0.000000 0.000000 0.000000 0.000000 10.000000 
Rope3_Seg09 0.000000 0.000000 0.000000 0.000000 0.000000 0.000000 10.000000 
R_rear_hand01 0.000000 0.000000 0.000000 0.000000 0.000000 0.000000 10.000000 
R_rear_hand02 0.000000 0.000000 0.000000 0.000000 0.000000 0.000000 10.000000 
R_rear_hand03 0.000000 0.000000 0.000000 0.000000 0.000000 0.000000 10.000000 
Rope4_Seg01 0.000000 0.000000 0.000000 0.000000 0.000000 0.000000 10.000000 
Rope4_Seg02 0.000000 0.000000 0.000000 0.000000 0.000000 0.000000 10.000000 
Rope4_Seg03 0.000000 0.000000 0.000000 0.000000 0.000000 0.000000 10.000000 
Rope4_Seg04 0.000000 0.000000 0.000000 0.000000 0.000000 0.000000 10.000000 
Rope4_Seg05 0.000000 0.000000 0.000000 0.000000 0.000000 0.000000 10.000000 
Rope4_Seg06 0.000000 0.000000 0.000000 0.000000 0.000000 0.000000 10.000000 
Rope4_Seg07 0.000000 0.000000 0.000000 0.000000 0.000000 0.000000 10.000000 
Rope4_Seg08 0.000000 0.000000 0.000000 0.000000 0.000000 0.000000 10.000000 
Rope4_Seg09 0.000000 0.000000 0.000000 0.000000 0.000000 0.000000 10.000000 
L_rear_hand01 0.000000 0.000000 0.000000 0.000000 0.000000 0.000000 10.000000 
L_rear_hand02 0.000000 0.000000 0.000000 0.000000 0.000000 0.000000 10.000000 
L_rear_hand03 0.000000 0.000000 0.000000 0.000000 0.000000 0.000000 10.000000 
#Beginning of Data. Separated by tabs
#Fr	Tx	Ty	Tz	Rx	Ry	Rz	SF
[MASTER]
31 0.000003 -0.000024 -5112.194336 0.001660 0.001660 0.001660 5112.194336
32 0.000003 -0.000021 -5287.825195 0.001660 0.001660 0.001660 5287.825195
[root]
31 -16.502304 3.626166 1451.157471 -77.026657 -17.621750 -95.402222 1451.255737
32 -16.502304 4.689468 1450.621704 -81.544167 -20.583031 -93.498238 1450.723145
[chest]
31 -84.512650 -34.090519 0.000000 -1.812138 -2.112096 -176.380997 91.129311
32 -84.512650 -34.090519 0.000000 -2.286259 -2.124172 -173.647980 91.129311
[L_mid_tent01]
31 27.299229 22.178762 -249.918640 4.129171 29.367624 81.685371 252.381607
32 27.299227 22.178774 -249.918640 3.862628 36.229202 81.347610 252.381607
[R_mid_tent01]
31 23.228794 24.509907 226.238495 162.918396 -34.825344 83.475601 228.744751
32 23.228794 24.509907 226.238495 160.432037 -47.061241 87.899765 228.744751
[spine01]
31 -0.361383 -0.195265 0.000000 0.001878 0.001408 16.263212 0.410763
32 -0.361383 -0.195265 0.000000 0.001845 0.001451 13.654368 0.410763
[Bip01_Neck]
31 165.484543 71.581718 0.000119 176.643677 -1.657967 43.431911 180.302734
32 165.484543 71.581718 0.000119 176.643677 -1.657967 43.431911 180.302734
[L_humerus]
31 -13.983130 -135.272980 -120.471481 167.384918 30.053089 -75.337105 181.680161
32 -13.983130 -135.272980 -120.471481 168.123398 37.155544 -80.774544 181.680161
[R_humerus]
31 -13.983309 -135.273102 125.287651 -176.538651 -26.169985 -86.747070 184.909012
32 -13.983309 -135.273102 125.287651 -175.901337 -33.535923 -87.776825 184.909012
[weapon_bone]
31 235.964890 -300.705902 0.000000 0.000000 -89.951546 -128.212341 382.234833
32 235.964890 -300.705902 0.000000 0.000000 -89.951546 -128.212341 382.234833
[Bip01_Head]
31 213.440704 185.726212 11.640320 4.965422 4.680883 -43.863182 283.172485
32 213.444519 185.715637 11.777039 4.962490 2.797846 -43.898743 283.174072
[eye_left_bone]
31 -24.626970 125.451866 -64.772606 0.000000 -90.000000 -99.840431 143.318359
32 -24.626970 125.451866 -64.772606 0.000000 -90.000000 -99.840431 143.318359
[eye_right_bone]
31 -24.626970 125.451866 64.327362 0.000000 -89.965736 80.156380 143.117676
32 -24.626970 125.451866 64.327362 0.000000 -89.965736 80.156380 143.117676
[L_forearm]
31 322.776093 0.000000 -0.000119 0.000115 -0.002344 -95.627380 322.776093
32 322.776093 0.000000 -0.000119 0.000119 -0.002344 -95.807457 322.776093
[L_front_hand]
31 241.149185 -0.042021 -3.300071 -178.667633 -1.835210 -27.442717 241.171753
32 241.149185 -0.042021 -3.300071 -178.667786 -1.835329 -27.432533 241.171753
[L_weapon_bone]
31 156.183838 0.000000 0.000000 0.000014 0.000007 0.000001 156.183838
32 156.183838 0.000000 0.000000 0.000014 0.000007 0.000001 156.183838
[L_front_hand01_01]
31 86.095154 20.947098 -0.655860 -0.366594 -0.477154 75.385574 88.609184
32 86.095154 20.947098 -0.655860 -0.366594 -0.477154 75.385574 88.609184
[L_front_hand02_01]
31 86.935165 -11.437475 24.513514 154.399796 -59.883835 -61.369587 91.046425
32 86.935165 -11.437475 24.513514 154.399796 -59.883835 -61.369587 91.046425
[L_front_hand03_01]
31 86.637497 -14.123976 -20.424902 -153.913849 58.118122 -62.702866 90.126129
32 86.637497 -14.123976 -20.424902 -153.913849 58.118122 -62.702866 90.126129
[L_front_hand01_02]
31 71.020905 -0.000179 0.000030 0.000334 -0.002323 -106.379684 71.020905
32 71.020905 -0.000179 0.000030 0.000334 -0.002323 -106.379684 71.020905
[L_front_hand02_02]
31 71.020927 -0.000119 0.000060 0.000334 -0.002323 -106.379684 71.020927
32 71.020927 -0.000119 0.000060 0.000334 -0.002323 -106.379684 71.020927
[L_front_hand03_02]
31 71.020905 -0.000060 0.000060 0.000334 -0.002323 -106.379684 71.020905
32 71.020905 -0.000060 0.000060 0.000334 -0.002323 -106.379684 71.020905
[R_forearm]
31 322.776428 -0.000060 0.000030 0.209524 0.012253 -94.156837 322.776428
32 322.776428 -0.000060 0.000030 0.209504 0.012586 -94.339050 322.776428
[R_front_hand]
31 238.847015 -0.006795 2.210259 -2.628022 -10.644917 -26.338669 238.857239
32 238.847015 -0.006795 2.210259 -2.631661 -10.645189 -26.325586 238.857239
[R_weapon_bone]
31 155.664093 0.002503 -0.000030 0.003487 0.001180 -90.988930 155.664078
32 155.664093 0.002503 -0.000030 0.003487 0.001180 -90.988930 155.664078
[R_front_hand01_01]
31 87.624611 14.231146 22.918642 -154.633514 -59.950634 61.746063 91.683487
32 87.624611 14.231146 22.918642 -154.633484 -59.950619 61.746037 91.683487
[R_front_hand02_01]
31 89.356956 14.367283 -19.491137 154.602661 58.302849 63.744389 92.579636
32 89.356956 14.367283 -19.491137 154.602661 58.302849 63.744389 92.579636
[R_front_hand03_01]
31 87.286232 -22.307278 -0.143439 0.162155 -0.423168 -75.767921 90.091743
32 87.286232 -22.307278 -0.143439 0.162155 -0.423168 -75.767906 90.091743
[R_front_hand01_02]
31 71.020905 0.000060 0.000119 0.002323 -0.000334 106.381714 71.020905
32 71.020905 0.000060 0.000119 0.002323 -0.000334 106.381714 71.020905
[R_front_hand02_02]
31 71.020844 -0.000030 -0.000119 0.002323 -0.000334 106.381714 71.020836
32 71.020844 -0.000030 -0.000119 0.002323 -0.000334 106.381714 71.020836
[R_front_hand03_02]
31 71.020905 0.000000 0.000030 0.002323 -0.000334 106.381714 71.020905
32 71.020905 0.000000 0.000030 0.002323 -0.000334 106.381714 71.020905
[null_rope01_connect]
31 328.732483 0.000000 -0.000238 -124.676964 -68.241791 150.150085 328.732483
32 328.732483 0.000000 -0.000238 -135.710953 -59.339634 164.815735 328.732483
[Rope1_Seg01]
31 0.000052 -0.000044 0.000208 -16.602903 9.290044 156.147537 0.000219
32 0.000054 -0.000044 0.000215 -16.834192 3.813237 156.362991 0.000226
[Rope1_Seg02]
31 139.999863 -0.000179 0.000000 -0.234285 5.255641 -4.490797 139.999863
32 139.999863 -0.000179 0.000000 -0.188614 9.089557 -2.643044 139.999863
[Rope1_Seg03]
31 139.999924 0.000060 -0.000060 -0.342286 4.478710 -1.833212 139.999924
32 139.999924 0.000060 -0.000060 -0.335011 6.311987 4.139852 139.999924
[Rope1_Seg04]
31 139.999924 -0.000060 -0.000119 -0.482842 3.675099 -0.449279 139.999924
32 139.999924 -0.000060 -0.000119 -0.231866 5.549479 -7.367608 139.999924
[Rope1_Seg05]
31 139.999832 0.000119 -0.000060 1.435581 4.633121 -13.660085 139.999832
32 139.999832 0.000119 -0.000060 3.818029 5.856911 -21.990582 139.999832
[Rope1_Seg06]
31 139.999954 0.000119 -0.000060 5.960599 4.026882 -18.197821 139.999954
32 139.999954 0.000119 -0.000060 5.337905 2.729970 -12.530501 139.999954
[Rope1_Seg07]
31 139.999985 0.000060 0.000000 5.613691 1.467214 -9.599291 139.999985
32 139.999985 0.000060 0.000000 4.687522 1.001177 -7.204060 139.999985
[Rope1_Seg09]
31 121.602913 0.000119 -0.000089 -89.793175 -1.359789 0.847147 121.602913
32 121.602913 0.000119 -0.000089 -89.793175 -1.359789 0.847147 121.602913
[L_mid_hand01]
31 103.859421 1.038730 8.195221 130.544373 -67.584534 -38.866943 104.187431
32 103.859421 1.038730 8.195221 130.544373 -67.584534 -38.866943 104.187431
[L_mid_hand02]
31 105.572853 -4.139662 -10.864139 -168.923172 43.409309 -73.498886 106.211075
32 105.572853 -4.139662 -10.864139 -168.923172 43.409309 -73.498886 106.211075
[L_mid_hand03]
31 104.641464 17.579376 -3.913581 -6.012627 17.808174 74.893669 106.179977
32 104.641464 17.579376 -3.913581 -6.012627 17.808174 74.893669 106.179977
[null_rope02_connect]
31 328.732849 0.000179 -0.000119 -138.187805 44.298824 7.883839 328.732849
32 328.732849 0.000179 -0.000119 -135.834412 34.842175 9.655064 328.732849
[Rope2_Seg01]
31 0.000054 0.000109 0.000000 82.804741 3.798166 -2.764530 0.000122
32 0.000058 0.000110 0.000000 68.966858 12.864677 -11.365535 0.000124
[Rope2_Seg02]
31 139.999741 -0.000060 -0.000119 -6.011997 -4.553601 -4.424353 139.999756
32 139.999741 -0.000060 -0.000119 -6.918883 -4.997723 -4.905200 139.999756
[Rope2_Seg03]
31 140.000107 0.000030 0.000000 -10.356380 -6.336296 -7.676713 140.000107
32 140.000107 0.000030 0.000000 -11.540235 -6.581338 -8.338881 140.000107
[Rope2_Seg04]
31 139.999802 0.000000 -0.000060 -16.785877 -6.982934 -14.601134 139.999802
32 139.999802 0.000000 -0.000060 -16.004477 -5.669797 -13.967368 139.999802
[Rope2_Seg05]
31 139.999985 -0.000060 0.000119 -17.574364 -3.130763 -21.848047 139.999985
32 139.999985 -0.000060 0.000119 -16.675829 -3.081258 -19.869133 139.999985
[Rope2_Seg06]
31 139.999893 -0.000030 -0.000119 -14.142965 -2.033826 -26.894875 139.999893
32 139.999893 -0.000030 -0.000119 -14.782891 -1.742779 -26.667688 139.999893
[Rope2_Seg07]
31 139.999893 0.000060 -0.000060 -6.410090 2.413033 -20.841957 139.999893
32 139.999893 0.000060 -0.000060 -5.808964 3.148777 -17.438377 139.999893
[Rope2_Seg09]
31 121.338966 0.000089 -0.000060 33.793236 -1.359788 -0.847141 121.338966
32 121.338966 0.000089 -0.000060 33.793236 -1.359788 -0.847141 121.338966
[R_mid_hand01]
31 104.680779 11.144459 -10.335981 -16.212063 45.237247 70.462852 105.778534
32 104.680779 11.144459 -10.335981 -16.212063 45.237247 70.462852 105.778534
[R_mid_hand02]
31 104.070427 2.443552 8.231699 49.067368 -67.749771 39.286453 104.424065
32 104.070427 2.443552 8.231699 49.067371 -67.749794 39.286461 104.424065
[R_mid_hand03]
31 106.028137 -11.221827 -5.996406 -177.101105 15.551026 -76.585571 106.788818
32 106.028137 -11.221827 -5.996406 -177.101105 15.551026 -76.585571 106.788818
[spine02]
31 129.756927 0.001550 0.000119 -1.043402 -3.923853 7.051771 129.756927
32 129.756927 0.001550 0.000119 -1.023899 -3.926965 6.770993 129.756927
[spine03]
31 78.614006 0.082637 -4.898988 1.024492 4.153327 4.033569 78.766548
32 78.614014 0.082576 -4.898989 1.040681 4.146420 4.212376 78.766556
[pelvis]
31 169.435242 0.051022 0.000000 0.022330 -0.187473 -11.076716 169.435257
32 169.435242 0.051022 0.000000 0.019518 -0.190233 -10.721436 169.435257
[null_rope03_connect]
31 -1.257226 -2.466202 137.391083 -6.920256 -77.878639 98.929367 137.418976
32 -1.257226 -2.466202 137.391083 -4.495908 -82.350815 101.481407 137.418976
[null_rope04_connect]
31 -1.259640 -2.480268 -137.844437 -6.920256 -77.878639 98.929367 137.872513
32 -1.259640 -2.480268 -137.844437 -4.495908 -82.350815 101.481407 137.872513
[Rope3_Seg01]
31 -0.000020 0.000026 0.000160 20.690989 -57.930607 -73.189140 0.000163
32 -0.000020 0.000027 0.000170 9.093820 -54.161850 -59.406269 0.000173
[Rope3_Seg02]
31 139.999924 -0.000119 0.000060 1.650972 8.031884 23.033943 139.999924
32 139.999924 -0.000119 0.000060 0.439130 6.503868 21.114471 139.999924
[Rope3_Seg03]
31 139.999924 -0.000119 0.000119 -0.783028 8.532519 22.814497 139.999924
32 139.999924 -0.000119 0.000119 -2.743478 5.276069 19.744442 139.999924
[Rope3_Seg04]
31 139.999924 0.000119 0.000000 -2.366389 4.997589 12.809353 139.999924
32 139.999924 0.000119 0.000000 -4.909419 1.597306 11.532700 139.999924
[Rope3_Seg05]
31 139.999924 -0.000238 0.000060 -6.790336 1.380528 10.383846 139.999924
32 139.999924 -0.000238 0.000060 -4.738492 2.776652 10.453093 139.999924
[Rope3_Seg06]
31 139.999893 -0.000119 -0.000060 -27.023172 -1.813197 16.396246 139.999893
32 139.999893 -0.000119 -0.000060 -19.397985 5.232316 18.322371 139.999893
[Rope3_Seg07]
31 139.999771 0.000060 -0.000119 -48.760506 -9.552586 15.365709 139.999771
32 139.999771 0.000060 -0.000119 -92.874649 -1.598497 19.838909 139.999771
[Rope3_Seg08]
31 139.999985 -0.000060 0.000000 -20.268724 -10.867442 2.237484 139.999985
32 139.999985 -0.000060 0.000000 -21.687403 -11.443220 -1.711343 139.999985
[Rope3_Seg09]
31 90.185997 -0.000179 -0.000060 89.793228 -1.359877 -0.847183 90.185997
32 90.185997 -0.000179 -0.000060 89.793228 -1.359877 -0.847183 90.185997
[R_rear_hand01]
31 103.366196 -6.073594 -10.757982 -177.714203 24.565960 -73.910950 104.101845
32 103.366196 -6.073594 -10.757982 -177.714203 24.565960 -73.910950 104.101845
[R_rear_hand02]
31 100.509819 12.039542 -7.992327 -12.874829 36.868488 72.167213 101.543350
32 100.509819 12.039542 -7.992327 -12.874829 36.868488 72.167213 101.543350
[R_rear_hand03]
31 101.539970 5.215704 5.435467 71.484581 -71.816628 21.513813 101.819031
32 101.539970 5.215704 5.435467 71.484581 -71.816628 21.513813 101.819031
[Rope4_Seg01]
31 0.000000 0.000000 0.000000 -81.929268 -43.909657 -132.557053 0.000000
32 0.000000 0.000000 0.000000 -82.508385 -48.759335 -131.134323 0.000000
[Rope4_Seg02]
31 139.999985 0.000060 0.000119 -8.104122 3.354647 33.227882 139.999985
32 139.999985 0.000060 0.000119 -9.016247 -5.954207 39.150143 139.999985
[Rope4_Seg03]
31 139.999924 0.000000 -0.000238 -16.754076 -9.116818 30.001955 139.999924
32 139.999924 0.000000 -0.000238 -11.695642 -18.169275 30.974487 139.999924
[Rope4_Seg04]
31 139.999985 0.000000 0.000119 -9.537270 3.602077 20.510670 139.999985
32 139.999985 0.000000 0.000119 -2.178065 8.969216 19.113821 139.999985
[Rope4_Seg05]
31 139.999802 -0.000060 -0.000119 -12.767698 8.828065 19.591257 139.999802
32 139.999802 -0.000060 -0.000119 -3.850370 16.389652 17.211185 139.999802
[Rope4_Seg06]
31 139.999924 0.000000 0.000060 -9.881329 0.588179 8.840687 139.999924
32 139.999924 0.000000 0.000060 -5.578835 4.333742 7.511320 139.999924
[Rope4_Seg07]
31 139.999802 0.000000 0.000000 -6.429414 -0.736643 4.948582 139.999802
32 139.999802 0.000000 0.000000 -4.477990 1.899403 4.571897 139.999802
[Rope4_Seg08]
31 139.999924 0.000000 0.000119 -5.401033 -0.743343 2.789904 139.999924
32 139.999924 0.000000 0.000119 -4.604366 0.882944 2.708631 139.999924
[Rope4_Seg09]
31 90.185791 0.000060 0.000060 -135.617828 2.228885 0.850567 90.185791
32 90.185791 0.000060 0.000060 -135.617828 2.228885 0.850567 90.185791
[L_rear_hand01]
31 101.696655 -8.392275 -7.654577 -12.874829 -36.868488 107.832764 102.329041
32 101.696655 -8.392275 -7.654577 -12.874829 -36.868488 107.832764 102.329041
[L_rear_hand02]
31 102.726799 -1.568258 5.773216 71.484581 71.816628 158.486160 102.900848
32 102.726799 -1.568258 5.773216 71.484581 71.816628 158.486160 102.900848
[L_rear_hand03]
31 104.552910 9.721220 -10.420293 -177.714203 -24.565960 -106.089035 105.519653
32 104.552910 9.721220 -10.420293 -177.714203 -24.565960 -106.089035 105.519653
